<?xml version="1.0" encoding="UTF-8"?>
<!-- Generated by Pixelmator Pro 3.7.1 -->
<svg width="700" height="444" viewBox="0 0 700 444" xmlns="http://www.w3.org/2000/svg">
    <g id="Group">
        <path id="Path" fill="#ee7033" stroke="none" d="M 226.303955 335.273926 C 233.634262 335.405304 240.964752 335.655121 248.294968 335.650055 C 345.422546 335.582794 442.550934 335.68335 539.677185 335.275513 C 573.819946 335.132111 607.412659 329.720093 640.239624 320.416199 C 650.610962 317.476807 660.36499 312.358765 670.401489 308.237793 C 670.379028 307.27594 670.356628 306.314026 670.334229 305.352234 C 667.480408 303.365356 664.884399 300.685913 661.72821 299.511902 C 648.257446 294.501282 634.514526 290.211548 621.111633 285.035431 C 617.203552 283.526184 612.608215 280.661011 610.940247 277.169373 C 607.896973 270.798645 613.352051 263.641785 620.449646 264.646454 C 642.221069 267.728271 663.064636 274.196594 680.753906 287.611572 C 685.49408 291.20636 689.681702 298.305969 690.262573 304.178467 C 695.915955 361.328644 661.978577 423.218414 599.236511 436.981384 C 590.716003 438.850342 581.786621 439.597717 573.045227 439.607178 C 425.273041 439.76651 277.496643 439.075958 129.729996 439.997406 C 52.454659 440.479279 4.113275 374.10376 9.073581 305.502075 C 9.783829 295.679138 15.419652 287.866333 23.913942 284.11438 C 40.147865 276.943695 56.867165 270.71698 73.755905 265.242737 C 83.677055 262.026978 94.273987 260.77887 104.639236 259.08905 C 112.5532 257.79895 116.878586 260.72876 117.760338 267.061707 C 118.68779 273.722961 114.981636 278.146423 107.33046 279.371643 C 85.555 282.858795 64.05098 287.40155 43.820862 296.525055 C 38.828335 298.776703 34.189388 301.812256 27.168022 305.724182 C 33.690075 309.430725 38.012642 312.441925 42.752064 314.486664 C 65.894379 324.470734 90.549545 329.294678 115.285019 331.647705 C 144.913757 334.466217 174.819717 334.371033 205.960648 335.385406 C 213.645065 335.246704 219.974503 335.260315 226.303955 335.273926 M 44.920807 336.913544 C 40.050083 335.146179 35.179314 333.378784 29.565092 331.341614 C 32.94326 353.553375 42.203949 371.7211 55.430805 388.075775 C 58.129066 391.412201 60.719234 391.673676 63.907082 388.384674 C 71.897942 380.140259 80.118599 372.118988 88.222206 363.983246 C 92.251114 359.938354 96.225075 355.838623 100.358215 351.62677 C 81.508263 346.704468 63.73204 342.0625 44.920807 336.913544 M 608.957153 360.192322 C 619.403931 370.621521 629.850647 381.050659 640.655396 391.83728 C 657.162781 374.613403 665.924683 355.179443 669.755493 333.016541 C 646.309692 339.273926 623.556946 345.346344 598.364258 352.069885 C 602.03241 354.820068 605.126709 357.139954 608.957153 360.192322 M 563.962036 387.068817 C 557.527161 397.186401 551.092346 407.303955 544.380554 417.856812 C 557.373657 420.828644 566.309937 419.381744 571.427368 406.950867 C 574.596924 399.251434 579.992676 392.468475 585.104797 384.102753 C 593.439819 392.654785 600.982178 400.582611 608.790283 408.239624 C 610.290405 409.710541 613.351868 411.370209 614.795898 410.773102 C 618.653992 409.177826 622.024231 406.40271 625.888672 403.902222 C 610.514343 389.104523 595.899719 375.037964 581.144836 360.836365 C 575.69397 369.090363 570.069031 377.607971 563.962036 387.068817 M 130.362671 410.011261 C 134.843384 423.383545 146.539139 417.243256 154.821823 420.333466 C 155.250336 419.7724 155.678833 419.211273 156.107437 418.650208 C 143.542465 399.182159 130.9776 379.714142 119.778191 362.361816 C 105.223335 376.85199 90.906799 391.10495 76.774445 405.17453 C 86.76532 412.499329 86.763527 412.497528 96.46698 402.777985 C 102.422409 396.812653 108.384209 390.85376 114.579475 384.655579 C 116.160316 386.696259 117.165657 387.755585 117.897461 388.978607 C 121.896255 395.661255 125.82782 402.384216 130.362671 410.011261 M 391.664063 362.859863 C 387.2995 354.894196 383.070557 353.766205 367.726257 356.920746 C 381.174683 375.33255 394.386566 393.420593 408.415222 412.62677 C 422.120056 393.37619 435.044525 375.221771 448.204346 356.736877 C 434.539032 353.49408 425.50528 356.693542 419.763947 368.594147 C 416.920624 374.487732 412.18808 379.46991 408.092407 385.167572 C 402.373749 377.374786 397.357697 370.539459 391.664063 362.859863 M 309.654388 360.054871 C 303.829712 368.290619 298.005127 376.526428 291.664917 385.491119 C 286.504211 378.168488 281.975006 371.874664 277.58609 365.484497 C 270.336609 354.929321 265.794861 353.340454 251.685364 357.20575 C 264.869659 375.506622 277.866241 393.546814 291.53775 412.523956 C 305.496857 393.352234 318.703552 375.213928 332.845032 355.791718 C 327.681458 355.791718 324.464478 355.360596 321.420227 355.90152 C 317.657684 356.570007 314.038574 358.045776 309.654388 360.054871 M 448.853241 387.951233 C 441.691681 398.175964 434.530151 408.400635 426.648193 419.653809 C 437.784851 420.933289 446.32666 422.052551 451.74234 411.045624 C 455.283691 403.848267 461.202087 397.820465 466.592621 390.544159 C 472.118652 398.068542 477.072693 404.627167 481.824677 411.32901 C 488.627625 420.923218 494.539246 422.842773 507.095612 418.695313 C 493.635162 400.42334 480.340546 382.376404 466.262878 363.266449 C 460.016876 372.092987 454.721985 379.575531 448.853241 387.951233 M 266.760956 410.190002 C 256.025269 394.967682 245.289505 379.745331 233.551712 363.102234 C 219.470444 382.413147 206.181839 400.637207 192.298737 419.676331 C 203.518753 420.85611 212.95726 422.578522 218.678589 410.426575 C 221.977844 403.419098 227.938126 397.66452 233.369949 390.458099 C 239.599106 399.197632 245.250702 407.042694 250.809708 414.952759 C 255.235306 421.250122 264.767914 422.600525 271.77594 417.534668 C 270.305695 415.398254 268.822723 413.243347 266.760956 410.190002 M 320.682678 403.769836 C 317.342834 408.68045 314.002899 413.591095 310.53479 418.690247 C 323.022919 422.753326 328.037109 421.061035 334.539795 411.645386 C 339.332764 404.705536 344.428589 397.974915 349.970123 390.352356 C 355.146332 397.651337 359.809906 404.07019 364.306732 410.60379 C 371.763062 421.437164 374.738495 422.548859 390.019592 418.960815 C 376.673279 400.424835 363.647369 382.333893 350.028656 363.419678 C 339.812805 377.434082 330.536896 390.159027 320.682678 403.769836 M 546.697021 355.790558 C 542.09552 361.49939 537.397705 367.134155 532.92865 372.944855 C 530.231873 376.451294 527.890381 380.231018 524.964966 384.508514 C 519.332886 377.093811 514.540894 370.980865 509.962585 364.712006 C 502.963531 355.128662 497.030426 353.241302 484.25592 357.569946 C 498.155334 375.809387 511.824493 393.746613 526.295166 412.735657 C 538.963379 392.879974 550.840942 374.26355 563.236206 354.83548 C 557.036926 355.211151 552.482178 355.487213 546.697021 355.790558 M 140.055176 354.392456 C 140.01825 356.125702 139.290039 358.283203 140.052582 359.525879 C 146.806229 370.531525 153.819885 381.377716 160.765701 392.265259 C 164.889877 398.729858 169.029922 405.184296 173.808456 412.652344 C 188.228607 393.480286 201.745041 375.509521 216.280716 356.183838 C 211.658401 355.973022 209.477692 356.023407 207.338654 355.749146 C 199.643921 354.762573 194.207077 356.813782 190.103149 364.337646 C 186.105698 371.666077 180.057953 377.876129 174.537216 385.062988 C 171.722656 380.711548 169.228622 377.115234 167.001129 373.360901 C 161.356781 363.847961 156.727386 353.08551 142.54483 354.887756 C 142.100647 354.944214 141.610474 354.639618 140.055176 354.392456 Z"/>
        <path id="path1" fill="#d12630" stroke="none" d="M 435.08493 288.221344 C 441.433746 285.275543 447.64917 281.988647 454.154999 279.44455 C 478.884125 269.774323 499.597046 254.904419 514.82843 232.958359 C 526.771179 215.750641 531.946777 195.930695 536.235535 175.803467 C 539.054749 162.573212 543.298706 149.920502 551.797791 139.076935 C 554.473694 135.662872 556.885376 133.403107 562.144104 135.282379 C 566.528503 136.849243 571.766113 136.512787 576.583984 136.250641 C 581.741882 135.96991 585.096436 137.535797 586.534058 142.63797 C 586.863281 143.806183 587.379944 144.924347 587.846191 146.05069 C 592.244446 156.678101 596.379822 158.288513 607.934021 153.704285 C 608.983826 153.49823 609.302429 153.187866 609.621033 152.87738 C 609.621033 152.87738 609.642029 153.004761 610.196167 153.036041 C 612.340515 154.593292 615.442688 156.292694 615.290588 157.618835 C 613.433167 173.81546 610.405884 189.79332 603.065186 204.566284 C 589.516418 231.833008 570.975281 255.052795 545.585632 272.086151 C 514.713318 292.797729 481.214508 304.631592 443.22467 300.122894 C 436.253143 299.295502 432.073212 297.438934 433.466278 289.599243 C 433.466278 289.599243 433.506073 289.675812 433.815094 289.522827 C 434.444366 288.987 434.764618 288.604126 435.08493 288.221344 M 526.276794 246.025146 C 543.773132 231.931503 553.023804 212.790985 559.683655 191.960327 C 562.797058 182.222382 566.708252 172.739594 569.823059 163.001984 C 570.632874 160.470215 569.807922 157.415558 569.733704 154.601105 C 566.928406 155.408997 562.806091 155.336578 561.566467 157.191132 C 557.963379 162.581116 554.12323 168.458832 552.858032 174.652222 C 547.66748 200.062134 539.93988 224.277771 523.583374 245.702042 C 523.15387 246.355728 522.724243 247.00946 522.2948 247.663162 C 522.497803 247.865448 522.700806 248.067734 522.903809 248.27002 C 523.740906 247.678528 524.577942 247.087082 526.276794 246.025146 Z"/>
        <path id="path2" fill="#ec7237" stroke="none" d="M 330.857941 142.710297 C 348.199463 142.712891 364.832031 142.545746 381.457642 142.812286 C 387.432343 142.90802 390.551697 140.882629 391.353058 134.766418 C 391.749756 131.738983 392.613831 127.703094 394.730927 126.234131 C 397.547974 124.279633 402.322144 122.940521 405.271027 124.021851 C 408.039703 125.03714 411.140137 129.452972 411.316101 132.531311 C 412.428619 151.996613 401.760071 162.890594 382.492462 162.90448 C 355.346466 162.92392 328.2005 162.919891 301.054688 162.983154 C 295.478546 162.996155 289.992218 162.659882 287.176239 156.918915 C 284.2995 151.054199 287.861877 146.58667 291.273346 142.356354 C 306.755493 123.158661 322.300171 104.011414 338.123535 84.474304 C 323.077881 65.584991 308.168732 46.869141 293.263336 28.150299 C 292.045319 26.620636 290.240234 25.235809 289.771729 23.497162 C 288.693085 19.493622 286.562927 14.465729 288.063263 11.444672 C 289.548218 8.454712 294.914429 5.908325 298.666138 5.782227 C 316.010162 5.199402 333.384857 5.514954 350.748535 5.533966 C 362.731903 5.547058 374.719391 5.416565 386.697662 5.683105 C 402.798584 6.04126 415.308502 22.375916 410.733795 37.779907 C 409.830078 40.822998 405.248444 44.026337 401.839661 44.775726 C 396.883484 45.865326 393.166656 42.622803 391.631714 37.408844 C 388.284149 26.03772 388.233429 26.005096 376.104858 25.97821 C 357.325897 25.936432 338.546753 25.967163 317.811401 25.967163 C 320.588501 29.740723 322.294342 32.211395 324.153839 34.560425 C 335.079529 48.362122 346.098053 62.090637 356.967743 75.936096 C 362.846191 83.42395 362.614227 86.582764 356.501587 93.974457 C 344.817291 108.103607 333.171387 122.264648 321.550537 136.446014 C 320.37149 137.884979 319.472015 139.553009 317.389984 142.711914 C 322.618622 142.711914 326.382416 142.711914 330.857941 142.710297 Z"/>
        <path id="path3" fill="#f0a929" stroke="none" d="M 312.80072 246.695679 C 321.543915 228.315323 330.032013 210.420929 338.555176 192.543259 C 340.908936 187.606171 343.348846 182.598907 349.97702 182.70578 C 356.198029 182.806061 358.657196 187.517487 360.892853 192.229736 C 377.87204 228.019241 394.849762 263.809631 411.725494 299.648071 C 416.141144 309.025391 411.974121 315.809265 401.561279 315.853821 C 367.056763 316.001678 332.55072 315.989502 298.04599 315.845184 C 287.706482 315.802002 283.508087 309.035736 287.858398 299.622009 C 295.962799 282.084351 304.311798 264.659668 312.80072 246.695679 M 353.834198 224.813919 C 352.673096 222.55098 351.511963 220.288086 349.523254 216.412445 C 336.833252 243.526031 324.927856 268.963104 312.743988 294.995026 C 338.032562 294.995026 361.806152 294.995026 386.85022 294.995026 C 375.65564 271.25824 364.944794 248.547241 353.834198 224.813919 Z"/>
        <path id="path4" fill="#eb7237" stroke="none" d="M 249.008926 72.308807 C 261.760498 71.385193 271.772522 75.406128 279.134399 85.216492 C 282.988525 90.352478 284.260223 96.577942 280.278473 101.552948 C 277.608307 104.889038 272.485229 107.674927 268.246155 108.010468 C 261.919495 108.511322 257.772919 104.041718 255.438217 97.869934 C 254.249954 94.728424 251.699707 92.102081 249.76503 89.242889 C 246.711441 92.055573 241.979324 94.333618 240.884628 97.770264 C 235.040329 116.117126 229.339798 134.576935 225.01619 153.326599 C 216.235092 191.40683 208.921097 229.830734 199.793152 267.822418 C 197.000198 279.447083 191.604935 291.001221 185.039139 301.043274 C 173.23027 319.104553 144.907394 319.848022 132.530655 303.502228 C 128.261993 297.864624 126.506386 291.556458 130.364731 285.050629 C 133.610565 279.577759 138.926147 278.006653 144.995056 279.264099 C 151.319565 280.574402 153.740753 285.553406 156.015121 290.931091 C 157.132675 293.573456 159.524368 295.676941 161.339493 298.024323 C 163.703476 296.103699 167.310867 294.645386 168.225342 292.185791 C 173.309143 278.51239 178.862152 264.859619 182.184525 250.713608 C 192.517792 206.714874 201.51416 162.400879 211.975937 118.434448 C 214.52179 107.735504 220.065475 97.555969 225.393707 87.770874 C 230.144287 79.046692 238.331879 73.968079 249.008926 72.308807 Z"/>
        <path id="path5" fill="#b6222e" stroke="none" d="M 432.969482 289.858429 C 432.073212 297.438934 436.253143 299.295502 443.22467 300.122894 C 481.214508 304.631592 514.713318 292.797729 545.585632 272.086151 C 570.975281 255.052795 589.516418 231.833008 603.065186 204.566284 C 610.405884 189.79332 613.433167 173.81546 615.290588 157.618835 C 615.442688 156.292694 612.340515 154.593292 610.133728 153.019989 C 613.606934 149.201263 617.375671 149.353973 621.726379 153.026611 C 625.944946 156.587494 630.989929 159.159515 635.297607 162.630493 C 636.678101 163.742767 637.683472 166.43515 637.464233 168.234406 C 636.200256 178.607269 635.942444 189.394089 632.744141 199.192093 C 612.917969 259.930511 541.803772 312.964844 478.128204 315.099304 C 465.096558 315.536102 452.13913 314.523773 440.170807 308.631775 C 430.398438 303.820862 428.313812 298.43576 432.969482 289.858429 Z"/>
        <path id="path6" fill="#f0a729" stroke="none" d="M 226.421906 334.711182 C 219.974503 335.260315 213.645065 335.246704 206.63858 335.225555 C 210.326279 315.420105 214.573502 295.595398 219.07959 275.829712 C 229.346069 230.797226 239.738022 185.793335 250.087051 140.779572 C 250.46994 139.114655 250.864029 137.446075 251.377319 135.818451 C 253.27597 129.797668 257.463959 126.730743 263.622955 128.148712 C 269.890289 129.591614 272.31189 134.481232 271.026642 140.520721 C 268.12793 154.143005 264.782898 167.669922 261.661896 181.245392 C 249.945358 232.210922 238.245743 283.180359 226.421906 334.711182 Z"/>
        <path id="path7" fill="#f0a929" stroke="none" d="M 412.692932 84.497864 C 410.919128 81.508362 409.281464 79.062714 407.934204 76.466492 C 404.662109 70.160706 406.0289 64.304504 411.349701 61.197937 C 416.422485 58.236237 422.006226 59.503632 425.422546 66.117035 C 432.020966 78.890991 439.398132 91.639435 443.422211 105.291656 C 453.220551 138.534058 461.337982 172.273804 470.019043 205.842575 C 472.648773 216.011673 475.18631 226.220749 477.252106 236.514664 C 479.049591 245.471832 474.158203 251.24855 466.254456 250.435501 C 460.147827 249.807297 458.393188 245.301041 457.236206 240.359787 C 451.777832 217.048798 446.704346 193.642212 440.878052 170.424164 C 433.57196 141.309357 427.23407 111.830994 412.692932 84.497864 Z"/>
        <path id="path8" fill="#348354" stroke="none" d="M 616.532776 114.085022 C 617.422852 117.029175 617.811768 120.207611 619.601074 121.655884 C 628.285217 128.684967 633.86261 137.611511 637.170288 148.097961 C 637.860046 150.285034 638.097839 152.614685 638.543884 154.878662 C 637.94104 155.339355 637.338318 155.800018 636.735596 156.260712 C 633.102722 153.36853 629.168457 150.778137 625.904785 147.516632 C 620.43811 142.053345 615.024536 141.376465 608.155762 145.134888 C 597.712524 150.84903 596.543335 150.39212 592.495667 139.061584 C 589.975952 132.008148 585.802734 128.884644 578.321045 129.236176 C 573.156372 129.478882 567.947266 128.778442 562.671326 127.60083 C 572.038818 118.455322 583.202026 114.750153 595.719299 114.520508 C 604.797302 114.353912 605.87561 113.256866 606.867737 104.252686 C 608.200256 92.158997 603.965942 82.348877 595.383728 73.955872 C 589.590149 68.290131 589.916565 65.15506 595.798706 60.215454 C 600.483704 56.281189 604.518433 56.552765 608.105713 61.721466 C 617.656921 75.483307 620.498901 90.681763 617.939209 107.053528 C 617.600159 109.222321 617.101685 111.366272 616.532776 114.085022 Z"/>
        <path id="path9" fill="#b6222e" stroke="none" d="M 609.244507 152.912689 C 609.302429 153.187866 608.983826 153.49823 608.472656 153.616455 C 608.475952 153.265472 608.671875 153.106842 609.244507 152.912689 Z"/>
        <path id="path10" fill="#b6222e" stroke="none" d="M 434.690582 288.298737 C 434.764618 288.604126 434.444366 288.987 433.773773 289.510315 C 433.714355 289.225952 434.00528 288.801056 434.690582 288.298737 Z"/>
        <path id="path11" fill="#f6a626" stroke="none" d="M 45.438313 337.167053 C 63.73204 342.0625 81.508263 346.704468 100.358215 351.62677 C 96.225075 355.838623 92.251114 359.938354 88.222206 363.983246 C 80.118599 372.118988 71.897942 380.140259 63.907082 388.384674 C 60.719234 391.673676 58.129066 391.412201 55.430805 388.075775 C 42.203949 371.7211 32.94326 353.553375 29.565092 331.341614 C 35.179314 333.378784 40.050083 335.146179 45.438313 337.167053 Z"/>
        <path id="path12" fill="#f6a626" stroke="none" d="M 608.588989 359.82608 C 605.126709 357.139954 602.03241 354.820068 598.364258 352.069885 C 623.556946 345.346344 646.309692 339.273926 669.755493 333.016541 C 665.924683 355.179443 657.162781 374.613403 640.655396 391.83728 C 629.850647 381.050659 619.403931 370.621521 608.588989 359.82608 Z"/>
        <path id="path13" fill="#f7a528" stroke="none" d="M 564.203125 386.597198 C 570.069031 377.607971 575.69397 369.090363 581.144836 360.836365 C 595.899719 375.037964 610.514343 389.104523 625.888672 403.902222 C 622.024231 406.40271 618.653992 409.177826 614.795898 410.773102 C 613.351868 411.370209 610.290405 409.710541 608.790283 408.239624 C 600.982178 400.582611 593.439819 392.654785 585.104797 384.102753 C 579.992676 392.468475 574.596924 399.251434 571.427368 406.950867 C 566.309937 419.381744 557.373657 420.828644 544.380554 417.856812 C 551.092346 407.303955 557.527161 397.186401 564.203125 386.597198 Z"/>
        <path id="path14" fill="#f7a528" stroke="none" d="M 130.07254 409.552338 C 125.82782 402.384216 121.896255 395.661255 117.897461 388.978607 C 117.165657 387.755585 116.160316 386.696259 114.579475 384.655579 C 108.384209 390.85376 102.422409 396.812653 96.46698 402.777985 C 86.763527 412.497528 86.76532 412.499329 76.774445 405.17453 C 90.906799 391.10495 105.223335 376.85199 119.778191 362.361816 C 130.9776 379.714142 143.542465 399.182159 156.107437 418.650208 C 155.678833 419.211273 155.250336 419.7724 154.821823 420.333466 C 146.539139 417.243256 134.843384 423.383545 130.07254 409.552338 Z"/>
        <path id="path15" fill="#f7a428" stroke="none" d="M 392.002869 363.282013 C 397.357697 370.539459 402.373749 377.374786 408.092407 385.167572 C 412.18808 379.46991 416.920624 374.487732 419.763947 368.594147 C 425.50528 356.693542 434.539032 353.49408 448.204346 356.736877 C 435.044525 375.221771 422.120056 393.37619 408.415222 412.62677 C 394.386566 393.420593 381.174683 375.33255 367.726257 356.920746 C 383.070557 353.766205 387.2995 354.894196 392.002869 363.282013 Z"/>
        <path id="path16" fill="#f7a428" stroke="none" d="M 310.00589 359.613861 C 314.038574 358.045776 317.657684 356.570007 321.420227 355.90152 C 324.464478 355.360596 327.681458 355.791718 332.845032 355.791718 C 318.703552 375.213928 305.496857 393.352234 291.53775 412.523956 C 277.866241 393.546814 264.869659 375.506622 251.685364 357.20575 C 265.794861 353.340454 270.336609 354.929321 277.58609 365.484497 C 281.975006 371.874664 286.504211 378.168488 291.664917 385.491119 C 298.005127 376.526428 303.829712 368.290619 310.00589 359.613861 Z"/>
        <path id="path17" fill="#f7a428" stroke="none" d="M 449.140137 387.504639 C 454.721985 379.575531 460.016876 372.092987 466.262878 363.266449 C 480.340546 382.376404 493.635162 400.42334 507.095612 418.695313 C 494.539246 422.842773 488.627625 420.923218 481.824677 411.32901 C 477.072693 404.627167 472.118652 398.068542 466.592621 390.544159 C 461.202087 397.820465 455.283691 403.848267 451.74234 411.045624 C 446.32666 422.052551 437.784851 420.933289 426.648193 419.653809 C 434.530151 408.400635 441.691681 398.175964 449.140137 387.504639 Z"/>
        <path id="path18" fill="#f7a428" stroke="none" d="M 267.050354 410.639191 C 268.822723 413.243347 270.305695 415.398254 271.77594 417.534668 C 264.767914 422.600525 255.235306 421.250122 250.809708 414.952759 C 245.250702 407.042694 239.599106 399.197632 233.369949 390.458099 C 227.938126 397.66452 221.977844 403.419098 218.678589 410.426575 C 212.95726 422.578522 203.518753 420.85611 192.298737 419.676331 C 206.181839 400.637207 219.470444 382.413147 233.551712 363.102234 C 245.289505 379.745331 256.025269 394.967682 267.050354 410.639191 Z"/>
        <path id="path19" fill="#f7a428" stroke="none" d="M 320.971832 403.326904 C 330.536896 390.159027 339.812805 377.434082 350.028656 363.419678 C 363.647369 382.333893 376.673279 400.424835 390.019592 418.960815 C 374.738495 422.548859 371.763062 421.437164 364.306732 410.60379 C 359.809906 404.07019 355.146332 397.651337 349.970123 390.352356 C 344.428589 397.974915 339.332764 404.705536 334.539795 411.645386 C 328.037109 421.061035 323.022919 422.753326 310.53479 418.690247 C 314.002899 413.591095 317.342834 408.68045 320.971832 403.326904 Z"/>
        <path id="path20" fill="#f7a528" stroke="none" d="M 547.312195 355.776886 C 552.482178 355.487213 557.036926 355.211151 563.236206 354.83548 C 550.840942 374.26355 538.963379 392.879974 526.295166 412.735657 C 511.824493 393.746613 498.155334 375.809387 484.25592 357.569946 C 497.030426 353.241302 502.963531 355.128662 509.962585 364.712006 C 514.540894 370.980865 519.332886 377.093811 524.964966 384.508514 C 527.890381 380.231018 530.231873 376.451294 532.92865 372.944855 C 537.397705 367.134155 542.09552 361.49939 547.312195 355.776886 Z"/>
        <path id="path21" fill="#f7a428" stroke="none" d="M 140.598495 354.447906 C 141.610474 354.639618 142.100647 354.944214 142.54483 354.887756 C 156.727386 353.08551 161.356781 363.847961 167.001129 373.360901 C 169.228622 377.115234 171.722656 380.711548 174.537216 385.062988 C 180.057953 377.876129 186.105698 371.666077 190.103149 364.337646 C 194.207077 356.813782 199.643921 354.762573 207.338654 355.749146 C 209.477692 356.023407 211.658401 355.973022 216.280716 356.183838 C 201.745041 375.509521 188.228607 393.480286 173.808456 412.652344 C 169.029922 405.184296 164.889877 398.729858 160.765701 392.265259 C 153.819885 381.377716 146.806229 370.531525 140.052582 359.525879 C 139.290039 358.283203 140.01825 356.125702 140.598495 354.447906 Z"/>
    </g>
</svg>
