<svg xmlns="http://www.w3.org/2000/svg" width="700" height="700" viewBox="0 0 700 700"><path id="Path" fill="#ee7033" stroke="none" d="M 266.894531 331.051697 C 271.886414 331.141144 276.878418 331.311279 281.870239 331.307831 C 348.013367 331.262024 414.157043 331.330505 480.299255 331.052765 C 503.550232 330.955109 526.426575 327.269562 548.781494 320.933685 C 555.844299 318.931976 562.486694 315.446625 569.321472 312.640289 C 569.306213 311.98526 569.290955 311.330231 569.275696 310.675232 C 567.332275 309.322205 565.564392 307.497528 563.415039 306.698029 C 554.241577 303.285828 544.882751 300.364563 535.755493 296.839661 C 533.094116 295.81189 529.964722 293.860718 528.828857 291.482941 C 526.756409 287.144531 530.471252 282.270752 535.304688 282.954926 C 550.130859 285.053619 564.325134 289.458496 576.371399 298.593994 C 579.599426 301.042023 582.451172 305.876801 582.846741 309.875916 C 586.696655 348.794739 563.585571 390.941193 520.858704 400.31366 C 515.056274 401.586426 508.975464 402.095367 503.022644 402.101807 C 402.39093 402.210327 301.756348 401.740051 201.128418 402.367554 C 148.504517 402.695709 115.584412 357.494507 118.962341 310.777283 C 119.446014 304.087952 123.283966 298.767487 129.068512 296.212433 C 140.123688 291.329254 151.509399 287.088898 163.010498 283.360992 C 169.766724 281.171082 176.983154 280.321136 184.041809 279.17038 C 189.431152 278.29184 192.376709 280.287018 192.977173 284.599701 C 193.608765 289.135956 191.0849 292.148285 185.874512 292.982666 C 171.045593 295.357391 156.40152 298.450958 142.624969 304.664001 C 139.225098 306.197357 136.06601 308.264557 131.284515 310.928528 C 135.725983 313.452667 138.669617 315.503265 141.897125 316.895721 C 157.65686 323.694794 174.446838 326.979858 191.291504 328.582245 C 211.468445 330.501648 231.834167 330.436829 253.040894 331.127594 C 258.273926 331.033142 262.584229 331.042419 266.894531 331.051697 M 143.374023 332.168243 C 140.057098 330.964691 136.740143 329.761108 132.916901 328.37381 C 135.217407 343.499847 141.523865 355.871918 150.53125 367.009338 C 152.368744 369.281403 154.132629 369.459473 156.303528 367.219696 C 161.745239 361.605316 167.343445 356.142883 172.861938 350.602509 C 175.605591 347.847961 178.311829 345.056091 181.126465 342.187836 C 168.289795 338.835785 156.184326 335.674652 143.374023 332.168243 M 527.478394 348.020905 C 534.592529 355.123108 541.706665 362.225281 549.064636 369.570892 C 560.30603 357.841553 566.272827 344.607178 568.881592 329.514435 C 552.915161 333.775665 537.420715 337.910919 520.264709 342.489594 C 522.762695 344.362457 524.869873 345.942291 527.478394 348.020905 M 496.837036 366.323608 C 492.454956 373.213593 488.072876 380.103577 483.502197 387.289978 C 492.350403 389.313782 498.435974 388.328461 501.920898 379.863129 C 504.079346 374.619873 507.753784 370.000732 511.235107 364.303741 C 516.911194 370.127594 522.047485 375.526398 527.364746 380.740753 C 528.386292 381.742432 530.47113 382.87265 531.454529 382.466034 C 534.081848 381.379669 536.376953 379.489838 539.008606 377.787018 C 528.538818 367.7099 518.586365 358.130676 508.538391 348.459503 C 504.826416 354.080414 500.99585 359.880829 496.837036 366.323608 M 201.559265 381.947235 C 204.610596 391.05365 212.575317 386.872162 218.215759 388.976563 C 218.507568 388.594482 218.799377 388.212372 219.091248 387.830292 C 210.534607 374.572693 201.978027 361.315125 194.351318 349.498322 C 184.439575 359.366028 174.690125 369.072174 165.066101 378.653442 C 171.869812 383.641571 171.868591 383.64035 178.476563 377.021423 C 182.532166 372.959076 186.592102 368.901123 190.811035 364.680206 C 191.887573 366.069885 192.572205 366.79129 193.070557 367.624146 C 195.793701 372.174988 198.471069 376.753265 201.559265 381.947235 M 379.503479 349.837494 C 376.53125 344.412933 373.651367 343.644775 363.202026 345.792999 C 372.360291 358.331299 381.357483 370.649109 390.910889 383.728363 C 400.243774 370.618866 409.045227 358.255859 418.006958 345.667786 C 408.700989 343.459473 402.549072 345.638275 398.639282 353.742493 C 396.703003 357.755981 393.480164 361.148804 390.69104 365.02887 C 386.796692 359.722046 383.380798 355.06723 379.503479 349.837494 M 323.655518 347.927307 C 319.688965 353.535797 315.722473 359.144318 311.404846 365.249207 C 307.890442 360.262543 304.806091 355.976501 301.817261 351.624847 C 296.880432 344.436859 293.787537 343.354858 284.179077 345.987091 C 293.157471 358.449829 302.008057 370.735077 311.318237 383.658356 C 320.82428 370.60257 329.817932 358.250519 339.448181 345.024139 C 335.931824 345.024139 333.741089 344.73056 331.667969 345.098907 C 329.105713 345.554138 326.641113 346.559143 323.655518 347.927307 M 418.448853 366.92453 C 413.571899 373.887482 408.694946 380.850403 403.327393 388.513733 C 410.911377 389.38504 416.728271 390.147247 420.416321 382.651611 C 422.827942 377.750275 426.858337 373.645386 430.529236 368.690277 C 434.292419 373.814331 437.666077 378.280701 440.902161 382.844604 C 445.534912 389.378174 449.560669 390.685394 458.11145 387.860992 C 448.945007 375.417938 439.891479 363.128113 430.304688 350.11438 C 426.051208 356.125183 422.445435 361.220734 418.448853 366.92453 M 294.445435 382.068939 C 287.134521 371.702667 279.823547 361.336365 271.8302 350.002533 C 262.240967 363.153137 253.191528 375.563568 243.737244 388.529053 C 251.377991 389.332489 257.805542 390.505432 261.701721 382.230042 C 263.948486 377.458008 268.007385 373.539185 271.706421 368.631683 C 275.948425 374.583221 279.797119 379.925659 283.582764 385.312347 C 286.596558 389.6008 293.088196 390.520416 297.860596 387.070618 C 296.859375 385.615723 295.849487 384.148254 294.445435 382.068939 M 331.16571 377.696869 C 328.891296 381.040955 326.616821 384.385071 324.255066 387.857544 C 332.759399 390.624481 336.174011 389.472046 340.602295 383.060059 C 343.866272 378.334076 347.336487 373.75058 351.110229 368.559662 C 354.635193 373.530212 357.811035 377.901398 360.873352 382.350739 C 365.95105 389.72818 367.977295 390.485229 378.383606 388.041809 C 369.294861 375.418945 360.424316 363.099152 351.150085 350.218719 C 344.193176 359.762421 337.876343 368.428009 331.16571 377.696869 M 485.079712 345.023346 C 481.946106 348.911011 478.746948 352.74826 475.703552 356.705292 C 473.867065 359.09314 472.272522 361.667114 470.280334 364.580048 C 466.444946 359.530701 463.181641 355.367828 460.063843 351.098785 C 455.297546 344.572601 451.257141 343.287323 442.5578 346.235107 C 452.023193 358.656006 461.331787 370.871124 471.186218 383.802521 C 479.813171 370.280945 487.901672 357.603302 496.342773 344.372955 C 492.121094 344.628784 489.019348 344.816772 485.079712 345.023346 M 208.15979 344.071259 C 208.134644 345.251587 207.638733 346.720825 208.15802 347.567078 C 212.757202 355.061829 217.533447 362.447998 222.263489 369.862335 C 225.072021 374.264679 227.891357 378.660095 231.145508 383.745789 C 240.965515 370.689758 250.170105 358.451813 260.068787 345.291168 C 256.921021 345.147614 255.435974 345.181915 253.979309 344.995148 C 248.739258 344.323303 245.036804 345.720154 242.242065 350.843842 C 239.519836 355.834442 235.401367 360.063446 231.641785 364.957642 C 229.725098 361.994354 228.026672 359.545288 226.509766 356.988617 C 222.666016 350.510376 219.513428 343.181244 209.855225 344.408539 C 209.552734 344.446991 209.218933 344.239563 208.15979 344.071259 Z"></path><path id="path1" fill="#d12630" stroke="none" d="M 409.072754 299.009247 C 413.39624 297.003174 417.628906 294.764832 422.059326 293.032318 C 438.899658 286.44696 453.005005 276.320679 463.377441 261.37558 C 471.510376 249.657257 475.034912 236.160034 477.955505 222.453552 C 479.875366 213.443848 482.765503 204.827454 488.553284 197.443054 C 490.375549 195.118103 492.017883 193.579224 495.59906 194.859009 C 498.584778 195.926025 502.15155 195.696899 505.432495 195.518372 C 508.945007 195.327209 511.229431 196.393555 512.208435 199.868103 C 512.432617 200.663635 512.784485 201.42511 513.10199 202.192139 C 516.097168 209.429321 518.91333 210.526001 526.781616 207.404175 C 527.496521 207.263855 527.713501 207.05249 527.930481 206.841064 C 527.930481 206.841064 527.944763 206.927795 528.322144 206.949097 C 529.78241 208.009583 531.894958 209.16687 531.791382 210.069946 C 530.526489 221.099731 528.464966 231.98053 523.466003 242.040802 C 514.23938 260.609222 501.613037 276.421722 484.322876 288.021301 C 463.299072 302.125732 440.486633 310.184479 414.615845 307.114105 C 409.868286 306.550659 407.02179 305.286346 407.970459 299.947571 C 407.970459 299.947571 407.997559 299.999725 408.208008 299.895538 C 408.636536 299.53064 408.854614 299.269928 409.072754 299.009247 M 471.173706 270.273956 C 483.088562 260.6763 489.388184 247.641754 493.923523 233.456238 C 496.043701 226.824768 498.707214 220.367065 500.828369 213.73584 C 501.379822 212.011719 500.818054 209.931519 500.767517 208.014893 C 498.857117 208.565063 496.049866 208.515747 495.205688 209.778687 C 492.752014 213.449219 490.136902 217.451904 489.27533 221.669556 C 485.740601 238.973511 480.478149 255.464172 469.339478 270.053925 C 469.046997 270.499084 468.754456 270.944275 468.461975 271.389435 C 468.60022 271.527191 468.738464 271.664948 468.876709 271.802704 C 469.446777 271.399902 470.016785 270.997131 471.173706 270.273956 Z"></path><path id="path2" fill="#ec7237" stroke="none" d="M 338.094971 199.917358 C 349.904419 199.919128 361.231079 199.805298 372.552979 199.986816 C 376.621704 200.052002 378.745972 198.672729 379.291687 194.507629 C 379.561829 192.445984 380.150269 189.697571 381.59198 188.697205 C 383.510376 187.366211 386.761536 186.454285 388.769714 187.190674 C 390.655151 187.88208 392.766541 190.889221 392.886353 192.985535 C 393.643982 206.241272 386.378784 213.659973 373.25769 213.669434 C 354.771484 213.682678 336.285278 213.679932 317.799194 213.723022 C 314.001892 213.731873 310.265747 213.502869 308.348083 209.593323 C 306.389038 205.599487 308.815002 202.557129 311.138184 199.676331 C 321.681396 186.602844 332.267212 173.563721 343.042786 160.259094 C 332.796814 147.39563 322.643799 134.650269 312.493347 121.902893 C 311.663879 120.861206 310.434631 119.918152 310.115601 118.734131 C 309.381042 116.007751 307.93042 112.583801 308.952148 110.526489 C 309.963379 108.490356 313.617737 106.756287 316.172607 106.67041 C 327.983765 106.273499 339.815796 106.488403 351.64032 106.501343 C 359.800903 106.510254 367.964294 106.421387 376.121399 106.602905 C 387.085999 106.846802 395.605164 117.970581 392.489807 128.460571 C 391.87439 130.532898 388.754333 132.714355 386.432983 133.22467 C 383.057861 133.966675 380.526733 131.758545 379.481445 128.207886 C 377.201782 120.464233 377.167236 120.442017 368.907776 120.423706 C 356.119446 120.395264 343.330994 120.416199 329.210388 120.416199 C 331.101563 122.985962 332.263245 124.668457 333.529541 126.268127 C 340.969849 135.666992 348.473389 145.015991 355.875549 154.444641 C 359.878723 159.543823 359.720764 161.694946 355.558105 166.728638 C 347.601196 176.350464 339.67041 185.994019 331.756714 195.651428 C 330.953796 196.631348 330.341248 197.767273 328.923401 199.918457 C 332.48407 199.918457 335.04718 199.918457 338.094971 199.917358 Z"></path><path id="path3" fill="#f0a929" stroke="none" d="M 325.798157 270.730591 C 331.752197 258.213715 337.532532 246.027771 343.336731 233.85321 C 344.939636 230.491089 346.601196 227.081177 351.114929 227.153961 C 355.351379 227.22226 357.026062 230.430695 358.548523 233.639709 C 370.111206 258.012085 381.672913 282.385071 393.165161 306.790741 C 396.17218 313.176636 393.334473 317.796387 386.243408 317.826752 C 362.746094 317.927429 339.247742 317.919128 315.750305 317.820862 C 308.709167 317.791443 305.850098 313.183685 308.812622 306.77301 C 314.331665 294.829987 320.017273 282.963928 325.798157 270.730591 M 353.741638 255.829285 C 352.950928 254.288239 352.160217 252.747223 350.805908 250.107941 C 342.164124 268.572083 334.056641 285.894531 325.759521 303.62207 C 342.980835 303.62207 359.170471 303.62207 376.225281 303.62207 C 368.601868 287.457489 361.307861 271.991486 353.741638 255.829285 Z"></path><path id="path4" fill="#eb7237" stroke="none" d="M 282.356445 151.974487 C 291.040161 151.34552 297.858276 154.08374 302.871643 160.764526 C 305.496277 164.262085 306.362305 168.501587 303.650757 171.889526 C 301.832397 174.161377 298.343628 176.058533 295.456848 176.287048 C 291.148438 176.628113 288.324646 173.584351 286.734741 169.381409 C 285.925537 167.242065 284.188843 165.453552 282.871338 163.50647 C 280.79187 165.421875 277.569336 166.973206 276.823853 169.313538 C 272.843933 181.807617 268.961914 194.378601 266.017578 207.146973 C 260.03772 233.079315 255.056946 259.245697 248.840881 285.117737 C 246.938904 293.034027 243.264771 300.902313 238.793518 307.740875 C 230.75177 320.040466 211.464111 320.546753 203.035645 309.415405 C 200.128723 305.576233 198.933167 301.280426 201.560669 296.850006 C 203.771057 293.123016 207.39093 292.053131 211.523804 292.909424 C 215.83075 293.801727 217.479553 297.192383 219.028381 300.854553 C 219.789429 302.653992 221.418152 304.086456 222.654236 305.684998 C 224.264099 304.377075 226.720703 303.383972 227.343445 301.709015 C 230.805481 292.397522 234.587036 283.100098 236.849548 273.466766 C 243.886414 243.503967 250.012878 213.326477 257.137268 183.385681 C 258.870972 176.099792 262.646179 169.167603 266.274658 162.504028 C 269.509766 156.562927 275.085449 153.104431 282.356445 151.974487 Z"></path><path id="path5" fill="#b6222e" stroke="none" d="M 407.632141 300.124084 C 407.02179 305.286346 409.868286 306.550659 414.615845 307.114105 C 440.486633 310.184479 463.299072 302.125732 484.322876 288.021301 C 501.613037 276.421722 514.23938 260.609222 523.466003 242.040802 C 528.464966 231.98053 530.526489 221.099731 531.791382 210.069946 C 531.894958 209.16687 529.78241 208.009583 528.279602 206.938171 C 530.644836 204.337646 533.211304 204.44165 536.174133 206.942688 C 539.046936 209.367615 542.482544 211.119141 545.416016 213.482849 C 546.35614 214.240295 547.040771 216.073792 546.891479 217.299072 C 546.030701 224.362915 545.855164 231.708649 543.677124 238.381012 C 530.175659 279.743408 481.747437 315.859375 438.384888 317.312927 C 429.510437 317.610382 420.686523 316.92099 412.536194 312.9086 C 405.881287 309.632385 404.46167 305.965179 407.632141 300.124084 Z"></path><path id="path6" fill="#f0a729" stroke="none" d="M 266.974854 330.668457 C 262.584229 331.042419 258.273926 331.033142 253.502563 331.018738 C 256.013855 317.531372 258.906189 304.030914 261.974792 290.570648 C 268.966187 259.90387 276.04303 229.256561 283.090637 198.602539 C 283.351379 197.46875 283.619751 196.332458 283.969299 195.22406 C 285.262268 191.123962 288.114258 189.0354 292.308472 190.001038 C 296.576477 190.983643 298.225586 194.313416 297.350342 198.42627 C 295.376343 207.702942 293.098389 216.914673 290.973022 226.159454 C 282.994141 260.866577 275.026794 295.576385 266.974854 330.668457 Z"></path><path id="path7" fill="#f0a929" stroke="none" d="M 393.823975 160.275146 C 392.616028 158.239319 391.500793 156.573853 390.583313 154.805847 C 388.355042 150.511658 389.285828 146.523621 392.909241 144.408081 C 396.36377 142.391174 400.16626 143.254272 402.492737 147.757935 C 406.986206 156.456909 412.01001 165.138489 414.750366 174.435547 C 421.422974 197.073364 426.950867 220.049866 432.86261 242.909943 C 434.653442 249.835022 436.38147 256.787323 437.788269 263.797394 C 439.012329 269.897156 435.681335 273.831055 430.29895 273.277374 C 426.140381 272.849579 424.945496 269.780853 424.157593 266.415894 C 420.440491 250.54129 416.985474 234.601593 413.017822 218.790283 C 408.042419 198.963318 403.726379 178.888794 393.823975 160.275146 Z"></path><path id="path8" fill="#348354" stroke="none" d="M 532.637329 180.423767 C 533.243469 182.428711 533.508301 184.593201 534.726807 185.579468 C 540.640625 190.366211 544.438782 196.445129 546.691284 203.586304 C 547.161011 205.075684 547.322937 206.66217 547.626709 208.203918 C 547.216187 208.517639 546.805725 208.83136 546.395264 209.145081 C 543.921326 207.175537 541.242126 205.411499 539.019592 203.19043 C 535.296814 199.469971 531.610229 199.009033 526.932617 201.568481 C 519.820862 205.459778 519.024658 205.148621 516.26825 197.432617 C 514.552307 192.629272 511.710388 190.502197 506.615417 190.741577 C 503.098328 190.90686 499.550964 190.429871 495.958069 189.62793 C 502.33728 183.399902 509.939331 180.876709 518.463501 180.720337 C 524.645569 180.606873 525.379883 179.859802 526.055481 173.728027 C 526.962952 165.49231 524.079407 158.811707 518.234985 153.09613 C 514.289612 149.237793 514.511902 147.102844 518.517578 143.739014 C 521.708008 141.059814 524.455627 141.244751 526.89856 144.764587 C 533.402832 154.136292 535.338196 164.486328 533.595093 175.635376 C 533.364197 177.112305 533.024719 178.572327 532.637329 180.423767 Z"></path><path id="path9" fill="#b6222e" stroke="none" d="M 527.674072 206.865112 C 527.713501 207.05249 527.496521 207.263855 527.148438 207.34436 C 527.150696 207.105347 527.284119 206.997314 527.674072 206.865112 Z"></path><path id="path10" fill="#b6222e" stroke="none" d="M 408.804199 299.061951 C 408.854614 299.269928 408.636536 299.53064 408.179871 299.887024 C 408.139404 299.693359 408.337524 299.404022 408.804199 299.061951 Z"></path><path id="path11" fill="#f6a626" stroke="none" d="M 143.72644 332.340881 C 156.184326 335.674652 168.289795 338.835785 181.126465 342.187836 C 178.311829 345.056091 175.605591 347.847961 172.861938 350.602509 C 167.343445 356.142883 161.745239 361.605316 156.303528 367.219696 C 154.132629 369.459473 152.368744 369.281403 150.53125 367.009338 C 141.523865 355.871918 135.217407 343.499847 132.916901 328.37381 C 136.740143 329.761108 140.057098 330.964691 143.72644 332.340881 Z"></path><path id="path12" fill="#f6a626" stroke="none" d="M 527.227661 347.771515 C 524.869873 345.942291 522.762695 344.362457 520.264709 342.489594 C 537.420715 337.910919 552.915161 333.775665 568.881592 329.514435 C 566.272827 344.607178 560.30603 357.841553 549.064636 369.570892 C 541.706665 362.225281 534.592529 355.123108 527.227661 347.771515 Z"></path><path id="path13" fill="#f7a528" stroke="none" d="M 497.001221 366.002441 C 500.99585 359.880829 504.826416 354.080414 508.538391 348.459503 C 518.586365 358.130676 528.538818 367.7099 539.008606 377.787018 C 536.376953 379.489838 534.081848 381.379669 531.454529 382.466034 C 530.47113 382.87265 528.386292 381.742432 527.364746 380.740753 C 522.047485 375.526398 516.911194 370.127594 511.235107 364.303741 C 507.753784 370.000732 504.079346 374.619873 501.920898 379.863129 C 498.435974 388.328461 492.350403 389.313782 483.502197 387.289978 C 488.072876 380.103577 492.454956 373.213593 497.001221 366.002441 Z"></path><path id="path14" fill="#f7a528" stroke="none" d="M 201.361694 381.634705 C 198.471069 376.753265 195.793701 372.174988 193.070557 367.624146 C 192.572205 366.79129 191.887573 366.069885 190.811035 364.680206 C 186.592102 368.901123 182.532166 372.959076 178.476563 377.021423 C 171.868591 383.64035 171.869812 383.641571 165.066101 378.653442 C 174.690125 369.072174 184.439575 359.366028 194.351318 349.498322 C 201.978027 361.315125 210.534607 374.572693 219.091248 387.830292 C 218.799377 388.212372 218.507568 388.594482 218.215759 388.976563 C 212.575317 386.872162 204.610596 391.05365 201.361694 381.634705 Z"></path><path id="path15" fill="#f7a428" stroke="none" d="M 379.734192 350.124969 C 383.380798 355.06723 386.796692 359.722046 390.69104 365.02887 C 393.480164 361.148804 396.703003 357.755981 398.639282 353.742493 C 402.549072 345.638275 408.700989 343.459473 418.006958 345.667786 C 409.045227 358.255859 400.243774 370.618866 390.910889 383.728363 C 381.357483 370.649109 372.360291 358.331299 363.202026 345.792999 C 373.651367 343.644775 376.53125 344.412933 379.734192 350.124969 Z"></path><path id="path16" fill="#f7a428" stroke="none" d="M 323.894897 347.626984 C 326.641113 346.559143 329.105713 345.554138 331.667969 345.098907 C 333.741089 344.73056 335.931824 345.024139 339.448181 345.024139 C 329.817932 358.250519 320.82428 370.60257 311.318237 383.658356 C 302.008057 370.735077 293.157471 358.449829 284.179077 345.987091 C 293.787537 343.354858 296.880432 344.436859 301.817261 351.624847 C 304.806091 355.976501 307.890442 360.262543 311.404846 365.249207 C 315.722473 359.144318 319.688965 353.535797 323.894897 347.626984 Z"></path><path id="path17" fill="#f7a428" stroke="none" d="M 418.644226 366.620392 C 422.445435 361.220734 426.051208 356.125183 430.304688 350.11438 C 439.891479 363.128113 448.945007 375.417938 458.11145 387.860992 C 449.560669 390.685394 445.534912 389.378174 440.902161 382.844604 C 437.666077 378.280701 434.292419 373.814331 430.529236 368.690277 C 426.858337 373.645386 422.827942 377.750275 420.416321 382.651611 C 416.728271 390.147247 410.911377 389.38504 403.327393 388.513733 C 408.694946 380.850403 413.571899 373.887482 418.644226 366.620392 Z"></path><path id="path18" fill="#f7a428" stroke="none" d="M 294.642517 382.374847 C 295.849487 384.148254 296.859375 385.615723 297.860596 387.070618 C 293.088196 390.520416 286.596558 389.6008 283.582764 385.312347 C 279.797119 379.925659 275.948425 374.583221 271.706421 368.631683 C 268.007385 373.539185 263.948486 377.458008 261.701721 382.230042 C 257.805542 390.505432 251.377991 389.332489 243.737244 388.529053 C 253.191528 375.563568 262.240967 363.153137 271.8302 350.002533 C 279.823547 361.336365 287.134521 371.702667 294.642517 382.374847 Z"></path><path id="path19" fill="#f7a428" stroke="none" d="M 331.36261 377.395233 C 337.876343 368.428009 344.193176 359.762421 351.150085 350.218719 C 360.424316 363.099152 369.294861 375.418945 378.383606 388.041809 C 367.977295 390.485229 365.95105 389.72818 360.873352 382.350739 C 357.811035 377.901398 354.635193 373.530212 351.110229 368.559662 C 347.336487 373.75058 343.866272 378.334076 340.602295 383.060059 C 336.174011 389.472046 332.759399 390.624481 324.255066 387.857544 C 326.616821 384.385071 328.891296 381.040955 331.36261 377.395233 Z"></path><path id="path20" fill="#f7a528" stroke="none" d="M 485.498657 345.014038 C 489.019348 344.816772 492.121094 344.628784 496.342773 344.372955 C 487.901672 357.603302 479.813171 370.280945 471.186218 383.802521 C 461.331787 370.871124 452.023193 358.656006 442.5578 346.235107 C 451.257141 343.287323 455.297546 344.572601 460.063843 351.098785 C 463.181641 355.367828 466.444946 359.530701 470.280334 364.580048 C 472.272522 361.667114 473.867065 359.09314 475.703552 356.705292 C 478.746948 352.74826 481.946106 348.911011 485.498657 345.014038 Z"></path><path id="path21" fill="#f7a428" stroke="none" d="M 208.529785 344.109009 C 209.218933 344.239563 209.552734 344.446991 209.855225 344.408539 C 219.513428 343.181244 222.666016 350.510376 226.509766 356.988617 C 228.026672 359.545288 229.725098 361.994354 231.641785 364.957642 C 235.401367 360.063446 239.519836 355.834442 242.242065 350.843842 C 245.036804 345.720154 248.739258 344.323303 253.979309 344.995148 C 255.435974 345.181915 256.921021 345.147614 260.068787 345.291168 C 250.170105 358.451813 240.965515 370.689758 231.145508 383.745789 C 227.891357 378.660095 225.072021 374.264679 222.263489 369.862335 C 217.533447 362.447998 212.757202 355.061829 208.15802 347.567078 C 207.638733 346.720825 208.134644 345.251587 208.529785 344.109009 Z"></path><text id="TexMex" xml:space="preserve"><tspan x="55" y="531" font-family="Avenir Next" font-size="152" font-weight="700" fill="#d64707" xml:space="preserve">Tex</tspan><tspan font-family="Avenir Next" font-size="152" font-weight="700" fill="#b6222e" xml:space="preserve">Mex</tspan></text><path id="path22" fill="#fdeef0" stroke="none" d="M 470.405884 270.401794 C 470.016785 270.997131 469.446777 271.399902 468.876709 271.802704 C 468.738464 271.664948 468.60022 271.527191 468.461975 271.389435 C 468.754456 270.944275 469.046997 270.499084 469.588379 269.952026 C 469.966431 269.969788 470.095642 270.089508 470.405884 270.401794 Z"></path></svg>